<svg width="500" height="500" viewBox="0 0 500 500" fill="none" xmlns="http://www.w3.org/2000/svg">
<rect width="500" height="500" fill="#1B3497"/>
<g filter="url(#filter0_d_0_3)">
<path d="M137.837 184.075L58.6554 249.971L137.837 315.868C138.979 316.802 139.925 317.954 140.619 319.255C141.313 320.556 141.743 321.982 141.883 323.45C142.022 324.918 141.87 326.4 141.434 327.808C140.998 329.217 140.287 330.526 139.342 331.659C138.397 332.792 137.236 333.727 135.928 334.41C134.619 335.093 133.188 335.511 131.717 335.639C130.246 335.767 128.764 335.602 127.357 335.156C125.95 334.709 124.645 333.988 123.518 333.035L34.0266 258.555C32.7663 257.507 31.7524 256.194 31.0565 254.711C30.3607 253.227 30 251.609 30 249.971C30 248.333 30.3607 246.715 31.0565 245.232C31.7524 243.748 32.7663 242.436 34.0266 241.387L123.518 166.907C125.801 165.039 128.731 164.147 131.669 164.426C134.607 164.705 137.315 166.133 139.204 168.398C141.093 170.662 142.009 173.581 141.753 176.517C141.497 179.454 140.09 182.17 137.837 184.075ZM465.973 241.387L376.482 166.907C375.355 165.954 374.05 165.233 372.643 164.787C371.236 164.34 369.754 164.176 368.283 164.304C366.812 164.432 365.381 164.849 364.072 165.532C362.764 166.215 361.603 167.15 360.658 168.283C359.713 169.416 359.002 170.725 358.566 172.134C358.13 173.543 357.978 175.024 358.117 176.492C358.257 177.96 358.687 179.386 359.381 180.687C360.076 181.989 361.021 183.14 362.163 184.075L441.345 249.971L362.163 315.868C361.021 316.802 360.076 317.954 359.381 319.255C358.687 320.556 358.257 321.982 358.117 323.45C357.978 324.918 358.13 326.4 358.566 327.808C359.002 329.217 359.713 330.526 360.658 331.659C361.603 332.792 362.764 333.727 364.072 334.41C365.381 335.093 366.812 335.511 368.283 335.639C369.754 335.767 371.236 335.602 372.643 335.156C374.05 334.709 375.355 333.988 376.482 333.035L465.973 258.555C467.234 257.507 468.248 256.194 468.943 254.711C469.639 253.227 470 251.609 470 249.971C470 248.333 469.639 246.715 468.943 245.232C468.248 243.748 467.234 242.436 465.973 241.387ZM313.483 75.6684C312.1 75.1678 310.632 74.9446 309.162 75.0116C307.692 75.0786 306.25 75.4345 304.918 76.0589C303.587 76.6833 302.391 77.5639 301.401 78.6503C300.41 79.7368 299.644 81.0077 299.146 82.3903L179.824 410.104C178.843 412.89 179.006 415.95 180.278 418.615C181.549 421.281 183.826 423.335 186.61 424.33C187.807 424.758 189.067 424.985 190.339 425C192.636 425 194.877 424.295 196.758 422.979C198.639 421.663 200.069 419.801 200.854 417.645L320.176 89.9314C320.679 88.5523 320.904 87.0879 320.839 85.6219C320.775 84.1559 320.421 82.7169 319.8 81.3872C319.178 80.0575 318.301 78.8632 317.217 77.8723C316.133 76.8815 314.864 76.1136 313.483 75.6126V75.6684Z" fill="white"/>
</g>
<defs>
<filter id="filter0_d_0_3" x="26" y="75" width="448" height="358" filterUnits="userSpaceOnUse" color-interpolation-filters="sRGB">
<feFlood flood-opacity="0" result="BackgroundImageFix"/>
<feColorMatrix in="SourceAlpha" type="matrix" values="0 0 0 0 0 0 0 0 0 0 0 0 0 0 0 0 0 0 127 0" result="hardAlpha"/>
<feOffset dy="4"/>
<feGaussianBlur stdDeviation="2"/>
<feComposite in2="hardAlpha" operator="out"/>
<feColorMatrix type="matrix" values="0 0 0 0 0 0 0 0 0 0 0 0 0 0 0 0 0 0 0.25 0"/>
<feBlend mode="normal" in2="BackgroundImageFix" result="effect1_dropShadow_0_3"/>
<feBlend mode="normal" in="SourceGraphic" in2="effect1_dropShadow_0_3" result="shape"/>
</filter>
</defs>
</svg>
